{"title":"Griff The Invisible *2010* [DVDRip.XviD-miguel] [ENG]","uid":6634881,"size":1479086765,"categoryP":"video","categoryS":"movies","magnet":"?xt=urn:btih:33532c9f66f1d20641dc58ee09b7bc806edd0ae3&amp;dn=Griff+The+Invisible+%2A2010%2A+%5BDVDRip.XviD-miguel%5D+%5BENG%5D&amp;tr=udp%3A%2F%2Ftracker.openbittorrent.com%3A80&amp;tr=udp%3A%2F%2Fopen.demonii.com%3A1337&amp;tr=udp%3A%2F%2Ftracker.coppersurfer.tk%3A6969&amp;tr=udp%3A%2F%2Fexodus.desync.com%3A6969","seeders":0,"leechers":1,"uploader":"miguel1983","files":-1,"time":1314522483,"description":" &lt;a href=&quot;http://img221.imageshack.us/img221/4638/grifftheinvisible2010.jpg&quot; rel=&quot;nofollow&quot; target=&quot;_NEW&quot;&gt;http://img221.imageshack.us/img221/4638/grifftheinvisible2010.jpg&lt;/a&gt;\n\nCountry.......: Australia\nGenre.........: Comedy, Romance, Drama\nDate release..: 10.09.2010 [World]\nDirector......: Leon Ford\nWriters.......: Leon Ford\nDuration......: 89 min.\nMore..........: http://www.imdb.com/title/tt1509803\nTrailer.......: http://www.imdb.com/video/imdb/vi3481443353\nTrailer.......:\n\nPilot :\nGriff, office worker by day, superhero by night, has his world turned upside down when he meets Melody, a beautiful young scientist who shares his passion for the impossible. \n\nCats :\nRyan Kwanten   \t ...  \tGriff\nMaeve Dermody \t... \tMelody\nMarshall Napier \t... \tBenson\nHeather Mitchell \t... \tBronwyn\nPatrick Brammall \t... \tTim\nChan Griffin \t... \tTop Hat\nToby Schmitz \t... \tTony\nKate Mulvany \t... \tCecilia\nAnthony Phelan \t... \tDetective Stone\nKelly Paterniti \t... \tGina\nDavid Webb \t... \tGary \n\nData Technical :\n!!! SAMPLE !!!\nAudio.....: English\nSubtitles.: None\nFormat                           : AVI\nFormat/Info                      : Audio Video Interleave\nFile size                        : 1.37 GiB\nDuration                         : 1h 28mn\nOverall bit rate                 : 2 206 Kbps\nWriting library                  : VirtualDub build 32706/release\nVideo\nID                               : 0\nFormat                           : MPEG-4 Visual\nFormat profile                   : Advanced Simple@L5\nFormat settings, BVOP            : Yes\nFormat settings, QPel            : No\nFormat settings, GMC             : No warppoints\nFormat settings, Matrix          : Default (H.263)\nMuxing mode                      : Packed bitstream\nCodec ID                         : XVID\nCodec ID/Hint                    : XviD\nDuration                         : 1h 28mn\nBit rate                         : 1 748 Kbps\nWidth                            : 720 pixels\nHeight                           : 384 pixels\nDisplay aspect ratio             : 1.875\nFrame rate                       : 25.000 fps\nColor space                      : YUV\nChroma subsampling               : 4:2:0\nBit depth                        : 8 bits\nScan type                        : Progressive\nBits/(Pixel*Frame)               : 0.253\nStream size                      : 1.09 GiB (79%)\nWriting library                  : XviD 64\nAudio\nID                               : 1\nFormat                           : AC-3\nFormat/Info                      : Audio Coding 3\nMode extension                   : CM (complete main)\nCodec ID                         : 2000\nDuration                         : 1h 28mn\nBit rate mode                    : Constant\nBit rate                         : 448 Kbps\nChannel(s)                       : 6 channels\nChannel positions                : Front: L C R, Side: L R, LFE\nSampling rate                    : 48.0 KHz\nBit depth                        : 16 bits\nStream size                      : 285 MiB (20%)\nAlignment                        : Aligned on interleaves\nInterleave, duration             : 40 ms (1.00 video frame)\nInterleave, preload duration     : 512 ms\n\nScreen : &lt;a href=&quot;\nhttp://img685.imageshack.us/img685/249/grifftheinvisible2010s1.jpg&quot; rel=&quot;nofollow&quot; target=&quot;_NEW&quot;&gt;\nhttp://img685.imageshack.us/img685/249/grifftheinvisible2010s1.jpg&lt;/a&gt; &lt;a href=&quot;\nhttp://img220.imageshack.us/img220/6062/grifftheinvisible2010s2.jpg&quot; rel=&quot;nofollow&quot; target=&quot;_NEW&quot;&gt;\nhttp://img220.imageshack.us/img220/6062/grifftheinvisible2010s2.jpg&lt;/a&gt; &lt;a href=&quot;\nhttp://img833.imageshack.us/img833/4400/grifftheinvisible2010s3.jpg&quot; rel=&quot;nofollow&quot; target=&quot;_NEW&quot;&gt;\nhttp://img833.imageshack.us/img833/4400/grifftheinvisible2010s3.jpg&lt;/a&gt; &lt;a href=&quot;\nhttp://img9.imageshack.us/img9/1842/grifftheinvisible2010s4.jpg&quot; rel=&quot;nofollow&quot; target=&quot;_NEW&quot;&gt;\nhttp://img9.imageshack.us/img9/1842/grifftheinvisible2010s4.jpg&lt;/a&gt; &lt;a href=&quot;\nhttp://img718.imageshack.us/img718/2923/grifftheinvisible2010s5.jpg&quot; rel=&quot;nofollow&quot; target=&quot;_NEW&quot;&gt;\nhttp://img718.imageshack.us/img718/2923/grifftheinvisible2010s5.jpg&lt;/a&gt;","torrent":{"xt":"urn:btih:33532c9f66f1d20641dc58ee09b7bc806edd0ae3","amp;dn":"Griff+The+Invisible+%2A2010%2A+%5BDVDRip.XviD-miguel%5D+%5BENG%5D","amp;tr":["udp%3A%2F%2Ftracker.openbittorrent.com%3A80","udp%3A%2F%2Fopen.demonii.com%3A1337","udp%3A%2F%2Ftracker.coppersurfer.tk%3A6969","udp%3A%2F%2Fexodus.desync.com%3A6969"],"infoHash":"33532c9f66f1d20641dc58ee09b7bc806edd0ae3","infoHashBuffer":{"type":"Buffer","data":[51,83,44,159,102,241,210,6,65,220,88,238,9,183,188,128,110,221,10,227]},"announce":[],"urlList":[]}}